<svg xmlns="http://www.w3.org/2000/svg" viewBox="0 0 64 64" role="img" aria-label="Money bag icon">
  <defs>
    <linearGradient id="bag-body" x1="0%" y1="0%" x2="100%" y2="100%">
      <stop offset="0%" stop-color="#f9e079" />
      <stop offset="100%" stop-color="#d59a02" />
    </linearGradient>
    <linearGradient id="bag-shadow" x1="0%" y1="0%" x2="100%" y2="100%">
      <stop offset="0%" stop-color="rgba(255,255,255,0.55)" />
      <stop offset="70%" stop-color="rgba(180,83,9,0.35)" />
      <stop offset="100%" stop-color="rgba(15,23,42,0)" />
    </linearGradient>
  </defs>
  <rect width="64" height="64" rx="14" ry="14" fill="#0f172a" />
  <g transform="translate(8 6)">
    <path d="M24 0c3.2 0 7.6 1.5 9.3 4.4c1.4 2.3 1.2 5.6-0.4 8.6l3.1 1.6c2.4 1.2 3.9 3.7 3.9 6.4c0 1.6-0.6 3.2-1.6 4.4c3.7 2.9 6 7.2 6 11.9c0 8.7-7.2 15.7-16.2 15.7H12.9C3.9 52.9-3.3 45.9-3.3 37.2c0-4.7 2.3-9 6-11.9c-1-1.2-1.6-2.8-1.6-4.4c0-2.7 1.5-5.2 3.9-6.4l3.1-1.6c-1.6-3-1.8-6.3-0.4-8.6C16.4 1.5 20.8 0 24 0z" fill="url(#bag-body)" stroke="#fef3c7" stroke-width="2" stroke-linejoin="round" />
    <path d="M12 26c3.2-2.3 7.6-3.6 12.4-3.6s9.2 1.3 12.4 3.6" fill="none" stroke="#f97316" stroke-width="2.4" stroke-linecap="round" />
    <path d="M15.5 7.4h17" stroke="#fef3c7" stroke-width="3" stroke-linecap="round" />
    <ellipse cx="24" cy="32" rx="11" ry="10.4" fill="url(#bag-shadow)" />
  </g>
</svg>
